<svg width="50" height="30" xmlns="http://www.w3.org/2000/svg">
  <rect width="50" height="30" rx="4" ry="4" fill="#ffffff"/>
  <path d="M20 12.5C19.5 13 18.5 13.5 17.5 13.5C17 12.5 18 11.5 19 11C19.5 11.5 20 12 20 12.5ZM17.5 14C18.5 14 19.5 13.5 20.5 13C20.5 15 19 17 17 17C16 17 15 16.5 14 16.5C13 16.5 12 17 11 17C9.5 17 8 15.5 8 13C8 10.5 10 9 11.5 9C12.5 9 13.5 9.5 14 9.5C14.5 9.5 15.5 9 16.5 9C17 9 18.5 9.5 19.5 10.5C18 11 17.5 13 17.5 14ZM33 14.5C33 17 31 19 29 19C28 19 27 18.5 26.5 18.5C26 18.5 25 19 24 19C22 19 20 17 20 14.5C20 12 22 10 24 10C25 10 26 10.5 26.5 10.5C27 10.5 28 10 29 10C30 10 31.5 11 32 12.5C30 13 30 15 31.5 16C31 16 33 15.5 33 14.5Z" fill="#000000"/>
</svg>